<svg width="150" height="150" viewBox="0 0 150 150" fill="none" xmlns="http://www.w3.org/2000/svg">
<path id="&#229;&#189;&#162;&#231;&#138;&#182;" d="M75 0C116.421 0 150 33.5786 150 75C150 116.421 116.421 150 75 150C33.5786 150 0 116.421 0 75C0 33.5786 33.5786 0 75 0ZM75 15C41.8629 15 15 41.8629 15 75C15 108.137 41.8629 135 75 135C108.137 135 135 108.137 135 75C135 41.8629 108.137 15 75 15ZM101.516 47.8593C104.444 44.9303 109.193 44.9303 112.122 47.8593C114.825 50.5629 115.033 54.8172 112.746 57.7593L112.122 58.4659L70.2262 100.362C67.2344 103.354 62.5165 103.568 59.2782 101.003L58.5587 100.362L37.8757 79.6793C34.9468 76.7505 34.9468 72.0015 37.8757 69.0727C40.5794 66.3686 44.8336 66.1606 47.7758 68.4487L48.4823 69.0727L64.392 84.9825L101.516 47.8593Z" fill="#2AC670"/>
</svg>
